<svg xmlns="http://www.w3.org/2000/svg" xmlns:ev="http://www.w3.org/2001/xml-events" height="336" viewBox="0 0 611 336" xmlns:xlink="http://www.w3.org/1999/xlink" width="611"><defs/><g transform="translate(5.5,5.5)" id="page1"><rect height="326" y="0" fill="none" x="0" width="601"/><g transform="translate(49.878000,182.968500)" id="shape1"><path stroke-linecap="square" stroke="#686d75" stroke-width="1.3333300352096558" fill="none" d="M.0,57.6L498.9,57.6L498.9,.0L.0,.0L.0,57.6z" stroke-dasharray="14.6666,6.66665"/><text xml:space="preserve" style="fill:#202329;font-family:方正兰亭黑简体,PingFang SC,Mircrosoft YaHei,Arial;font-size:10.50pt"><tspan y="16.3" x="1.9">内</tspan><tspan y="33.3" x="1.9">存</tspan><tspan y="50.3" x="1.9">池</tspan></text></g><g transform="translate(60.905900,80.744600)" id="shape2"><path fill="#edeff2" d="M3.0,27.4L112.1,27.4C113.8,27.4,115.1,26.1,115.1,24.4L115.1,3.0C115.1,1.3,113.8,.0,112.1,.0L3.0,.0C1.3,.0,.0,1.3,.0,3.0L.0,24.4C.0,26.1,1.3,27.4,3.0,27.4z" fill-rule="nonzero"/><text xml:space="preserve" style="fill:#202329;font-family:方正兰亭黑简体,PingFang SC,Mircrosoft YaHei,Arial;font-size:10.50pt"><tspan y="19.2" x="21.1">应用程序</tspan><tspan style="font-family:Huawei Sans,PingFang SC,Mircrosoft YaHei,Arial" x="77.1">#1</tspan></text></g><g transform="translate(80.892200,131.168700)" id="shape3"><path fill="#c2d5fe" d="M3.0,27.4L72.1,27.4C73.8,27.4,75.1,26.1,75.1,24.4L75.1,3.0C75.1,1.3,73.8,.0,72.1,.0L3.0,.0C1.3,.0,.0,1.3,.0,3.0L.0,24.4C.0,26.1,1.3,27.4,3.0,27.4z" fill-rule="nonzero"/><text xml:space="preserve" style="fill:#202329;font-family:Huawei Sans,PingFang SC,Mircrosoft YaHei,Arial;font-size:10.50pt"><tspan y="19.2" x="15.6">CPU#1</tspan></text></g><g transform="translate(40.260600,39.081000)" id="shape4"><path stroke-linecap="square" stroke="#686d75" stroke-width="1.3333300352096558" fill="none" d="M.0,217.5L156.4,217.5L156.4,.0L.0,.0L.0,217.5z"/><text xml:space="preserve" style="fill:#202329;font-family:方正兰亭黑简体,PingFang SC,Mircrosoft YaHei,Arial;font-size:10.50pt;font-weight:bold"><tspan y="19.0" x="47.2">服务器</tspan><tspan style="font-family:Huawei Sans,PingFang SC,Mircrosoft YaHei,Arial" x="92.2">#1</tspan></text></g><g transform="translate(80.892200,198.044700)" id="shape5"><path fill="#c2d5fe" d="M3.0,27.4L72.1,27.4C73.8,27.4,75.1,26.1,75.1,24.4L75.1,3.0C75.1,1.3,73.8,.0,72.1,.0L3.0,.0C1.3,.0,.0,1.3,.0,3.0L.0,24.4C.0,26.1,1.3,27.4,3.0,27.4z" fill-rule="nonzero"/><text xml:space="preserve" style="fill:#202329;font-family:Huawei Sans,PingFang SC,Mircrosoft YaHei,Arial;font-size:10.50pt"><tspan y="19.2" x="14.6">DDR#1</tspan></text></g><g transform="translate(118.461000,108.147000)" id="shape6"><path stroke="#191919" stroke-width="1.3333300352096558" fill="none" d="M.0,6.9L.0,16.1"/><path stroke-linecap="round" stroke="#191919" stroke-width="1" fill="#191919" d="M-3.5,6.9L.0,.0L3.5,6.9L-3.5,6.9"/><path stroke-linecap="round" stroke="#191919" stroke-width="1" fill="#191919" d="M3.5,16.1L.0,23.0L-3.5,16.1L3.5,16.1"/></g><g transform="translate(118.461000,158.572000)" id="shape7"><path stroke="#191919" stroke-width="1.3333300352096558" fill="none" d="M.0,6.9L.0,32.5"/><path stroke-linecap="round" stroke="#191919" stroke-width="1" fill="#191919" d="M-3.5,6.9L.0,.0L3.5,6.9L-3.5,6.9"/><path stroke-linecap="round" stroke="#191919" stroke-width="1" fill="#191919" d="M3.5,32.5L.0,39.5L-3.5,32.5L3.5,32.5"/></g><g transform="translate(241.757700,80.744700)" id="shape8"><path fill="#edeff2" d="M3.0,27.4L112.1,27.4C113.8,27.4,115.1,26.1,115.1,24.4L115.1,3.0C115.1,1.3,113.8,.0,112.1,.0L3.0,.0C1.3,.0,.0,1.3,.0,3.0L.0,24.4C.0,26.1,1.3,27.4,3.0,27.4z" fill-rule="nonzero"/><text xml:space="preserve" style="fill:#202329;font-family:方正兰亭黑简体,PingFang SC,Mircrosoft YaHei,Arial;font-size:10.50pt"><tspan y="19.2" x="21.1">应用程序</tspan><tspan style="font-family:Huawei Sans,PingFang SC,Mircrosoft YaHei,Arial" x="77.1">#2</tspan></text></g><g transform="translate(261.744100,131.168700)" id="shape9"><path fill="#c2d5fe" d="M3.0,27.4L72.1,27.4C73.8,27.4,75.1,26.1,75.1,24.4L75.1,3.0C75.1,1.3,73.8,.0,72.1,.0L3.0,.0C1.3,.0,.0,1.3,.0,3.0L.0,24.4C.0,26.1,1.3,27.4,3.0,27.4z" fill-rule="nonzero"/><text xml:space="preserve" style="fill:#202329;font-family:Huawei Sans,PingFang SC,Mircrosoft YaHei,Arial;font-size:10.50pt"><tspan y="19.2" x="15.6">CPU#2</tspan></text></g><g transform="translate(221.112300,39.081000)" id="shape10"><path stroke-linecap="square" stroke="#686d75" stroke-width="1.3333300352096558" fill="none" d="M.0,217.5L156.4,217.5L156.4,.0L.0,.0L.0,217.5z"/><text xml:space="preserve" style="fill:#202329;font-family:方正兰亭黑简体,PingFang SC,Mircrosoft YaHei,Arial;font-size:10.50pt;font-weight:bold"><tspan y="19.0" x="47.2">服务器</tspan><tspan style="font-family:Huawei Sans,PingFang SC,Mircrosoft YaHei,Arial" x="92.2">#2</tspan></text></g><g transform="translate(261.744100,198.044700)" id="shape11"><path fill="#c2d5fe" d="M3.0,27.4L72.1,27.4C73.8,27.4,75.1,26.1,75.1,24.4L75.1,3.0C75.1,1.3,73.8,.0,72.1,.0L3.0,.0C1.3,.0,.0,1.3,.0,3.0L.0,24.4C.0,26.1,1.3,27.4,3.0,27.4z" fill-rule="nonzero"/><text xml:space="preserve" style="fill:#202329;font-family:Huawei Sans,PingFang SC,Mircrosoft YaHei,Arial;font-size:10.50pt"><tspan y="19.2" x="14.6">DDR#2</tspan></text></g><g transform="translate(299.313000,108.147000)" id="shape12"><path stroke="#191919" stroke-width="1.3333300352096558" fill="none" d="M.0,6.9L.0,16.1"/><path stroke-linecap="round" stroke="#191919" stroke-width="1" fill="#191919" d="M-3.5,6.9L.0,.0L3.5,6.9L-3.5,6.9"/><path stroke-linecap="round" stroke="#191919" stroke-width="1" fill="#191919" d="M3.5,16.1L.0,23.0L-3.5,16.1L3.5,16.1"/></g><g transform="translate(299.313000,158.572000)" id="shape13"><path stroke="#191919" stroke-width="1.3333300352096558" fill="none" d="M.0,6.9L.0,32.5"/><path stroke-linecap="round" stroke="#191919" stroke-width="1" fill="#191919" d="M-3.5,6.9L.0,.0L3.5,6.9L-3.5,6.9"/><path stroke-linecap="round" stroke="#191919" stroke-width="1" fill="#191919" d="M3.5,32.5L.0,39.5L-3.5,32.5L3.5,32.5"/></g><g transform="translate(403.858300,39.081000)" id="group14"><g transform="translate(20.645400,41.663600)" id="shape15"><path fill="#edeff2" d="M3.0,27.4L112.1,27.4C113.8,27.4,115.1,26.1,115.1,24.4L115.1,3.0C115.1,1.3,113.8,.0,112.1,.0L3.0,.0C1.3,.0,.0,1.3,.0,3.0L.0,24.4C.0,26.1,1.3,27.4,3.0,27.4z" fill-rule="nonzero"/><text xml:space="preserve" style="fill:#202329;font-family:方正兰亭黑简体,PingFang SC,Mircrosoft YaHei,Arial;font-size:10.50pt"><tspan y="19.5" x="21.1">应用程序</tspan><tspan style="font-family:Huawei Sans,PingFang SC,Mircrosoft YaHei,Arial" x="77.1">#3</tspan></text></g><g transform="translate(40.631800,92.088700)" id="shape16"><path fill="#c2d5fe" d="M3.0,27.4L72.1,27.4C73.8,27.4,75.1,26.1,75.1,24.4L75.1,3.0C75.1,1.3,73.8,.0,72.1,.0L3.0,.0C1.3,.0,.0,1.3,.0,3.0L.0,24.4C.0,26.1,1.3,27.4,3.0,27.4z" fill-rule="nonzero"/><text xml:space="preserve" style="fill:#202329;font-family:Huawei Sans,PingFang SC,Mircrosoft YaHei,Arial;font-size:10.50pt"><tspan y="19.5" x="15.6">CPU#3</tspan></text></g><g id="shape17"><path stroke-linecap="square" stroke="#686d75" stroke-width="1.3333300352096558" fill="none" d="M.0,217.5L156.4,217.5L156.4,.0L.0,.0L.0,217.5z"/><text xml:space="preserve" style="fill:#202329;font-family:方正兰亭黑简体,PingFang SC,Mircrosoft YaHei,Arial;font-size:10.50pt;font-weight:bold"><tspan y="19.0" x="47.2">服务器</tspan><tspan style="font-family:Huawei Sans,PingFang SC,Mircrosoft YaHei,Arial" x="92.2">#3</tspan></text></g><g transform="translate(40.631800,158.963700)" id="shape18"><path fill="#c2d5fe" d="M3.0,27.4L72.1,27.4C73.8,27.4,75.1,26.1,75.1,24.4L75.1,3.0C75.1,1.3,73.8,.0,72.1,.0L3.0,.0C1.3,.0,.0,1.3,.0,3.0L.0,24.4C.0,26.1,1.3,27.4,3.0,27.4z" fill-rule="nonzero"/><text xml:space="preserve" style="fill:#202329;font-family:Huawei Sans,PingFang SC,Mircrosoft YaHei,Arial;font-size:10.50pt"><tspan y="19.5" x="14.6">DDR#3</tspan></text></g><g transform="translate(78.200700,69.066200)" id="shape19"><path stroke="#191919" stroke-width="1.3333300352096558" fill="none" d="M.0,6.9L.0,16.1"/><path stroke-linecap="round" stroke="#191919" stroke-width="1" fill="#191919" d="M-3.5,6.9L.0,.0L3.5,6.9L-3.5,6.9"/><path stroke-linecap="round" stroke="#191919" stroke-width="1" fill="#191919" d="M3.5,16.1L.0,23.0L-3.5,16.1L3.5,16.1"/></g><g transform="translate(78.200700,119.491000)" id="shape20"><path stroke="#191919" stroke-width="1.3333300352096558" fill="none" d="M.0,6.9L.0,32.5"/><path stroke-linecap="round" stroke="#191919" stroke-width="1" fill="#191919" d="M-3.5,6.9L.0,.0L3.5,6.9L-3.5,6.9"/><path stroke-linecap="round" stroke="#191919" stroke-width="1" fill="#191919" d="M3.5,32.5L.0,39.5L-3.5,32.5L3.5,32.5"/></g></g><g transform="translate(118.461000,256.620000)" id="shape21"><path stroke="#191919" stroke-width="1.3333300352096558" fill="none" d="M.0,6.9L.0,26.0L363.7,26.0L363.7,6.9"/><path stroke-linecap="round" stroke="#191919" stroke-width="1" fill="#191919" d="M-3.5,6.9L.0,.0L3.5,6.9L-3.5,6.9"/><path stroke-linecap="round" stroke="#191919" stroke-width="1" fill="#191919" d="M360.2,6.9L363.7,-0.0L367.1,6.9L360.2,6.9"/></g><g transform="translate(299.313000,256.620000)" id="shape22"><path stroke="#191919" stroke-width="1.3333300352096558" fill="none" d="M-0.1,6.9L-0.4,26.0"/><path stroke-linecap="round" stroke="#191919" stroke-width="1" fill="#191919" d="M-3.6,6.9L.0,.0L3.4,7.0L-3.6,6.9"/></g><g transform="translate(340.864300,59.744700)" id="shape23"><text xml:space="preserve" style="fill:#191919;font-family:方正兰亭黑简体,PingFang SC,Mircrosoft YaHei,Arial;font-size:8.50pt"><tspan y="14.0" x="9.5">读方</tspan></text></g><g transform="translate(403.858100,60.854300)" id="shape24"><text xml:space="preserve" style="fill:#191919;font-family:方正兰亭黑简体,PingFang SC,Mircrosoft YaHei,Arial;font-size:8.50pt"><tspan y="14.0" x="6.6">写方+创建方</tspan></text></g><g transform="translate(299.313000,108.147000)" id="shape25"><path stroke="#191919" stroke-width="1.3333300352096558" fill="none" d="M.0,.0C13.5,17.5,27.0,35.0,48.4,50.6C69.8,66.2,99.0,79.9,116.4,88.4C129.1,94.6,135.5,98.0,140.2,100.7" stroke-dasharray="14.6666,6.66665"/><path stroke-linecap="round" stroke="#191919" stroke-width="1" fill="#191919" d="M140.9,97.1L145.2,103.6L137.4,103.1L140.9,97.1"/></g><g transform="translate(539.615000,94.446300)" id="shape26"><path stroke="#191919" stroke-width="1.3333300352096558" fill="none" d="M.0,.0C2.4,9.2,4.8,18.3,4.6,34.1C4.4,49.8,1.6,72.0,-2.9,87.0C-6.6,99.0,-11.3,106.3,-16.3,112.8" stroke-dasharray="14.6666,6.66665"/><path stroke-linecap="round" stroke="#191919" stroke-width="1" fill="#191919" d="M-12.9,114.1L-20.0,117.3L-18.4,109.7L-12.9,114.1"/><rect height="13.0" y="39.9" fill="#ffffff" x="-6.6" width="22.0"/><rect height="13.0" y="52.9" fill="#ffffff" x="-6.6" width="22.0"/><text xml:space="preserve" style="fill:#191919;font-family:方正兰亭黑简体,PingFang SC,Mircrosoft YaHei,Arial;font-size:8.00pt"><tspan y="49.9" x="-6.6">内存</tspan><tspan y="62.9" x="-6.6">共享</tspan></text></g></g></svg>