<svg xmlns="http://www.w3.org/2000/svg" xmlns:ev="http://www.w3.org/2001/xml-events" height="336" viewBox="0 0 611 336" xmlns:xlink="http://www.w3.org/1999/xlink" width="611"><defs/><g transform="translate(5.5,5.5)" id="page1"><rect height="326" y="0" fill="none" x="0" width="601"/><g transform="translate(50.267000,182.625500)" id="shape1"><path stroke-linecap="square" stroke="#686d75" stroke-width="1.3333300352096558" fill="none" d="M.0,57.6L498.9,57.6L498.9,.0L.0,.0L.0,57.6z" stroke-dasharray="14.6666,6.66665"/><text xml:space="preserve" style="fill:#202329;font-family:方正兰亭黑简体,PingFang SC,Mircrosoft YaHei,Arial;font-size:10.50pt"><tspan y="16.3" x="1.9">内</tspan><tspan y="33.3" x="1.9">存</tspan><tspan y="50.3" x="1.9">池</tspan></text></g><g transform="translate(61.294900,80.401200)" id="shape2"><path fill="#edeff2" d="M3.0,27.4L112.1,27.4C113.8,27.4,115.1,26.1,115.1,24.4L115.1,3.0C115.1,1.3,113.8,.0,112.1,.0L3.0,.0C1.3,.0,.0,1.3,.0,3.0L.0,24.4C.0,26.1,1.3,27.4,3.0,27.4z" fill-rule="nonzero"/><text xml:space="preserve" style="fill:#202329;font-family:方正兰亭黑简体,PingFang SC,Mircrosoft YaHei,Arial;font-size:10.50pt"><tspan y="19.2" x="21.1">应用程序</tspan><tspan style="font-family:Huawei Sans,PingFang SC,Mircrosoft YaHei,Arial" x="77.1">#1</tspan></text></g><g transform="translate(81.281200,130.825700)" id="shape3"><path fill="#c2d5fe" d="M3.0,27.4L72.1,27.4C73.8,27.4,75.1,26.1,75.1,24.4L75.1,3.0C75.1,1.3,73.8,.0,72.1,.0L3.0,.0C1.3,.0,.0,1.3,.0,3.0L.0,24.4C.0,26.1,1.3,27.4,3.0,27.4z" fill-rule="nonzero"/><text xml:space="preserve" style="fill:#202329;font-family:Huawei Sans,PingFang SC,Mircrosoft YaHei,Arial;font-size:10.50pt"><tspan y="19.2" x="15.6">CPU#1</tspan></text></g><g transform="translate(40.649600,38.738000)" id="shape4"><path stroke-linecap="square" stroke="#686d75" stroke-width="1.3333300352096558" fill="none" d="M.0,217.5L156.4,217.5L156.4,.0L.0,.0L.0,217.5z"/><text xml:space="preserve" style="fill:#202329;font-family:方正兰亭黑简体,PingFang SC,Mircrosoft YaHei,Arial;font-size:10.50pt;font-weight:bold"><tspan y="19.0" x="47.2">服务器</tspan><tspan style="font-family:Huawei Sans,PingFang SC,Mircrosoft YaHei,Arial" x="92.2">#1</tspan></text></g><g transform="translate(81.281200,197.701700)" id="shape5"><path fill="#c2d5fe" d="M3.0,27.4L72.1,27.4C73.8,27.4,75.1,26.1,75.1,24.4L75.1,3.0C75.1,1.3,73.8,.0,72.1,.0L3.0,.0C1.3,.0,.0,1.3,.0,3.0L.0,24.4C.0,26.1,1.3,27.4,3.0,27.4z" fill-rule="nonzero"/><text xml:space="preserve" style="fill:#202329;font-family:Huawei Sans,PingFang SC,Mircrosoft YaHei,Arial;font-size:10.50pt"><tspan y="19.2" x="14.6">DDR#1</tspan></text></g><g transform="translate(118.850000,107.804000)" id="shape6"><path stroke="#191919" stroke-width="1.3333300352096558" fill="none" d="M.0,6.9L.0,16.1"/><path stroke-linecap="round" stroke="#191919" stroke-width="1" fill="#191919" d="M-3.5,6.9L.0,.0L3.5,6.9L-3.5,6.9"/><path stroke-linecap="round" stroke="#191919" stroke-width="1" fill="#191919" d="M3.5,16.1L.0,23.0L-3.5,16.1L3.5,16.1"/></g><g transform="translate(118.850000,158.228000)" id="shape7"><path stroke="#191919" stroke-width="1.3333300352096558" fill="none" d="M.0,6.9L.0,31.8"/><path stroke-linecap="round" stroke="#191919" stroke-width="1" fill="#191919" d="M-3.5,6.9L.0,.0L3.5,6.9L-3.5,6.9"/><path stroke-linecap="round" stroke="#191919" stroke-width="1" fill="#191919" d="M3.5,31.8L.0,38.7L-3.5,31.8L3.5,31.8"/></g><g transform="translate(242.146700,80.401300)" id="shape8"><path fill="#edeff2" d="M3.0,27.4L112.1,27.4C113.8,27.4,115.1,26.1,115.1,24.4L115.1,3.0C115.1,1.3,113.8,.0,112.1,.0L3.0,.0C1.3,.0,.0,1.3,.0,3.0L.0,24.4C.0,26.1,1.3,27.4,3.0,27.4z" fill-rule="nonzero"/><text xml:space="preserve" style="fill:#202329;font-family:方正兰亭黑简体,PingFang SC,Mircrosoft YaHei,Arial;font-size:10.50pt"><tspan y="19.2" x="21.1">应用程序</tspan><tspan style="font-family:Huawei Sans,PingFang SC,Mircrosoft YaHei,Arial" x="77.1">#2</tspan></text></g><g transform="translate(262.133100,130.825700)" id="shape9"><path fill="#c2d5fe" d="M3.0,27.4L72.1,27.4C73.8,27.4,75.1,26.1,75.1,24.4L75.1,3.0C75.1,1.3,73.8,.0,72.1,.0L3.0,.0C1.3,.0,.0,1.3,.0,3.0L.0,24.4C.0,26.1,1.3,27.4,3.0,27.4z" fill-rule="nonzero"/><text xml:space="preserve" style="fill:#202329;font-family:Huawei Sans,PingFang SC,Mircrosoft YaHei,Arial;font-size:10.50pt"><tspan y="19.2" x="15.6">CPU#2</tspan></text></g><g transform="translate(221.501300,38.738000)" id="shape10"><path stroke-linecap="square" stroke="#686d75" stroke-width="1.3333300352096558" fill="none" d="M.0,217.5L156.4,217.5L156.4,.0L.0,.0L.0,217.5z"/><text xml:space="preserve" style="fill:#202329;font-family:方正兰亭黑简体,PingFang SC,Mircrosoft YaHei,Arial;font-size:10.50pt;font-weight:bold"><tspan y="19.0" x="47.2">服务器</tspan><tspan style="font-family:Huawei Sans,PingFang SC,Mircrosoft YaHei,Arial" x="92.2">#2</tspan></text></g><g transform="translate(262.133100,197.701700)" id="shape11"><path fill="#c2d5fe" d="M3.0,27.4L72.1,27.4C73.8,27.4,75.1,26.1,75.1,24.4L75.1,3.0C75.1,1.3,73.8,.0,72.1,.0L3.0,.0C1.3,.0,.0,1.3,.0,3.0L.0,24.4C.0,26.1,1.3,27.4,3.0,27.4z" fill-rule="nonzero"/><text xml:space="preserve" style="fill:#202329;font-family:Huawei Sans,PingFang SC,Mircrosoft YaHei,Arial;font-size:10.50pt"><tspan y="19.2" x="14.6">DDR#2</tspan></text></g><g transform="translate(299.702000,107.804000)" id="shape12"><path stroke="#191919" stroke-width="1.3333300352096558" fill="none" d="M.0,6.9L.0,16.1"/><path stroke-linecap="round" stroke="#191919" stroke-width="1" fill="#191919" d="M-3.5,6.9L.0,.0L3.5,6.9L-3.5,6.9"/><path stroke-linecap="round" stroke="#191919" stroke-width="1" fill="#191919" d="M3.5,16.1L.0,23.0L-3.5,16.1L3.5,16.1"/></g><g transform="translate(299.702000,158.228000)" id="shape13"><path stroke="#191919" stroke-width="1.3333300352096558" fill="none" d="M.0,6.9L.0,32.5"/><path stroke-linecap="round" stroke="#191919" stroke-width="1" fill="#191919" d="M-3.5,6.9L.0,.0L3.5,6.9L-3.5,6.9"/><path stroke-linecap="round" stroke="#191919" stroke-width="1" fill="#191919" d="M3.5,32.5L.0,39.5L-3.5,32.5L3.5,32.5"/></g><g transform="translate(404.247300,38.738000)" id="group14"><g transform="translate(20.645400,41.663600)" id="shape15"><path fill="#edeff2" d="M3.0,27.4L112.1,27.4C113.8,27.4,115.1,26.1,115.1,24.4L115.1,3.0C115.1,1.3,113.8,.0,112.1,.0L3.0,.0C1.3,.0,.0,1.3,.0,3.0L.0,24.4C.0,26.1,1.3,27.4,3.0,27.4z" fill-rule="nonzero"/><text xml:space="preserve" style="fill:#202329;font-family:方正兰亭黑简体,PingFang SC,Mircrosoft YaHei,Arial;font-size:10.50pt"><tspan y="19.5" x="21.1">应用程序</tspan><tspan style="font-family:Huawei Sans,PingFang SC,Mircrosoft YaHei,Arial" x="77.1">#3</tspan></text></g><g transform="translate(40.631800,92.088700)" id="shape16"><path fill="#c2d5fe" d="M3.0,27.4L72.1,27.4C73.8,27.4,75.1,26.1,75.1,24.4L75.1,3.0C75.1,1.3,73.8,.0,72.1,.0L3.0,.0C1.3,.0,.0,1.3,.0,3.0L.0,24.4C.0,26.1,1.3,27.4,3.0,27.4z" fill-rule="nonzero"/><text xml:space="preserve" style="fill:#202329;font-family:Huawei Sans,PingFang SC,Mircrosoft YaHei,Arial;font-size:10.50pt"><tspan y="19.5" x="15.6">CPU#3</tspan></text></g><g id="shape17"><path stroke-linecap="square" stroke="#686d75" stroke-width="1.3333300352096558" fill="none" d="M.0,217.5L156.4,217.5L156.4,.0L.0,.0L.0,217.5z"/><text xml:space="preserve" style="fill:#202329;font-family:方正兰亭黑简体,PingFang SC,Mircrosoft YaHei,Arial;font-size:10.50pt;font-weight:bold"><tspan y="19.0" x="47.2">服务器</tspan><tspan style="font-family:Huawei Sans,PingFang SC,Mircrosoft YaHei,Arial" x="92.2">#3</tspan></text></g><g transform="translate(40.631800,158.963700)" id="shape18"><path fill="#c2d5fe" d="M3.0,27.4L72.1,27.4C73.8,27.4,75.1,26.1,75.1,24.4L75.1,3.0C75.1,1.3,73.8,.0,72.1,.0L3.0,.0C1.3,.0,.0,1.3,.0,3.0L.0,24.4C.0,26.1,1.3,27.4,3.0,27.4z" fill-rule="nonzero"/><text xml:space="preserve" style="fill:#202329;font-family:Huawei Sans,PingFang SC,Mircrosoft YaHei,Arial;font-size:10.50pt"><tspan y="19.5" x="14.6">DDR#3</tspan></text></g><g transform="translate(78.200700,69.066200)" id="shape19"><path stroke="#191919" stroke-width="1.3333300352096558" fill="none" d="M.0,6.9L.0,16.1"/><path stroke-linecap="round" stroke="#191919" stroke-width="1" fill="#191919" d="M-3.5,6.9L.0,.0L3.5,6.9L-3.5,6.9"/><path stroke-linecap="round" stroke="#191919" stroke-width="1" fill="#191919" d="M3.5,16.1L.0,23.0L-3.5,16.1L3.5,16.1"/></g><g transform="translate(78.200700,119.491000)" id="shape20"><path stroke="#191919" stroke-width="1.3333300352096558" fill="none" d="M.0,6.9L.0,32.5"/><path stroke-linecap="round" stroke="#191919" stroke-width="1" fill="#191919" d="M-3.5,6.9L.0,.0L3.5,6.9L-3.5,6.9"/><path stroke-linecap="round" stroke="#191919" stroke-width="1" fill="#191919" d="M3.5,32.5L.0,39.5L-3.5,32.5L3.5,32.5"/></g></g><g transform="translate(118.850000,256.276000)" id="shape21"><path stroke="#191919" stroke-width="1.3333300352096558" fill="none" d="M.0,6.9L.0,26.0L363.7,26.0L363.7,6.2"/><path stroke-linecap="round" stroke="#191919" stroke-width="1" fill="#191919" d="M-3.5,6.9L.0,.0L3.5,6.9L-3.5,6.9"/><path stroke-linecap="round" stroke="#191919" stroke-width="1" fill="#191919" d="M360.2,6.2L363.7,-0.7L367.1,6.2L360.2,6.2"/></g><g transform="translate(299.702000,256.276000)" id="shape22"><path stroke="#191919" stroke-width="1.3333300352096558" fill="none" d="M.0,6.9L.0,26.0"/><path stroke-linecap="round" stroke="#191919" stroke-width="1" fill="#191919" d="M-3.5,6.9L.0,.0L3.5,6.9L-3.5,6.9"/></g><g transform="translate(148.198900,55.000000)" id="shape23"><text xml:space="preserve" style="fill:#191919;font-family:方正兰亭黑简体,PingFang SC,Mircrosoft YaHei,Arial;font-size:8.50pt"><tspan y="14.0" x="13.0">使用方</tspan></text></g><g transform="translate(213.571800,55.000000)" id="shape24"><text xml:space="preserve" style="fill:#191919;font-family:方正兰亭黑简体,PingFang SC,Mircrosoft YaHei,Arial;font-size:8.50pt"><tspan y="14.0" x="13.0">提供方</tspan></text></g><g transform="translate(118.850000,107.804000)" id="shape25"><path stroke="#191919" stroke-width="1.3333300352096558" fill="none" d="M.0,.0C15.3,23.2,30.6,46.4,48.7,62.2C66.7,78.0,87.4,86.5,103.7,92.2C116.9,96.8,127.1,99.6,136.8,102.0" stroke-dasharray="14.6666,6.66665"/><path stroke-linecap="round" stroke="#191919" stroke-width="1" fill="#191919" d="M137.4,98.6L143.3,103.6L135.7,105.3L137.4,98.6"/><rect height="10.0" y="57.4" fill="#ffffff" x="31.9" width="36.0"/><text xml:space="preserve" style="fill:#191919;font-family:方正兰亭黑简体,PingFang SC,Mircrosoft YaHei,Arial;font-size:7.00pt"><tspan y="65.4" x="31.9">内存借用</tspan></text></g></g></svg>