<svg xmlns="http://www.w3.org/2000/svg" xmlns:ev="http://www.w3.org/2001/xml-events" height="390" viewBox="0 0 477 390" xmlns:xlink="http://www.w3.org/1999/xlink" width="477"><defs/><g transform="translate(5.5,5.5)" id="page1"><rect height="380" y="0" fill="none" x="0" width="467"/><g transform="translate(102.048000,119.832600)" id="shape1"><path stroke-linecap="square" stroke="#686d75" stroke-width="1.3333300352096558" fill="none" d="M.0,70.1L259.8,70.1L259.8,.0L.0,.0L.0,70.1z"/><text xml:space="preserve" style="fill:#202329;font-family:Huawei Sans,PingFang SC,Mircrosoft YaHei,Arial;font-size:10.50pt"><tspan y="19.0" x="84.4">UBSMEM-SDK</tspan></text></g><g transform="translate(118.583000,151.180700)" id="shape2"><path fill="#c2d5fe" d="M3.0,28.4L222.6,28.4C224.2,28.4,225.6,27.1,225.6,25.4L225.6,3.0C225.6,1.3,224.2,.0,222.6,.0L3.0,.0C1.3,.0,.0,1.3,.0,3.0L.0,25.4C.0,27.1,1.3,28.4,3.0,28.4z" fill-rule="nonzero"/><text xml:space="preserve" style="fill:#202329;font-family:Huawei Sans,PingFang SC,Mircrosoft YaHei,Arial;font-size:10.50pt"><tspan y="19.7" x="60.8">ubsmem_sdk_lib</tspan></text></g><g transform="translate(90.709000,89.179000)" id="shape3"><path stroke-linecap="square" stroke="#686d75" stroke-width="1.3333300352096558" fill="none" d="M.0,207.4L283.5,207.4L283.5,.0L.0,.0L.0,207.4z"/><text xml:space="preserve" style="fill:#202329;font-family:Huawei Sans,PingFang SC,Mircrosoft YaHei,Arial;font-size:10.50pt"><tspan y="19.0" x="111.2">KSHMEM</tspan></text></g><g transform="translate(118.583300,237.961700)" id="shape4"><path fill="#c2d5fe" d="M3.0,28.4L101.4,28.4C103.1,28.4,104.4,27.1,104.4,25.4L104.4,3.0C104.4,1.3,103.1,.0,101.4,.0L3.0,.0C1.3,.0,.0,1.3,.0,3.0L.0,25.4C.0,27.1,1.3,28.4,3.0,28.4z" fill-rule="nonzero"/><text xml:space="preserve" style="fill:#202329;font-family:Huawei Sans,PingFang SC,Mircrosoft YaHei,Arial;font-size:10.50pt"><tspan y="19.7" x="19.7">ubsmd_lib</tspan></text></g><g transform="translate(239.764300,237.961700)" id="shape5"><path fill="#c2d5fe" d="M3.0,28.4L101.4,28.4C103.1,28.4,104.4,27.1,104.4,25.4L104.4,3.0C104.4,1.3,103.1,.0,101.4,.0L3.0,.0C1.3,.0,.0,1.3,.0,3.0L.0,25.4C.0,27.1,1.3,28.4,3.0,28.4z" fill-rule="nonzero"/><text xml:space="preserve" style="fill:#202329;font-family:Huawei Sans,PingFang SC,Mircrosoft YaHei,Arial;font-size:10.50pt"><tspan y="19.7" x="30.7">ubsmd</tspan></text></g><g transform="translate(90.709000,39.354300)" id="shape6"><path stroke-linecap="square" stroke="#686d75" stroke-width="1.3333300352096558" fill="none" d="M.0,29.3L283.5,29.3L283.5,.0L.0,.0L.0,29.3z"/><text xml:space="preserve" style="fill:#000000;font-family:Huawei Sans,PingFang SC,Mircrosoft YaHei,Arial;font-size:10.50pt"><tspan y="20.2" x="129.2">APP</tspan></text></g><g transform="translate(155.620000,151.181000)" id="shape7"><path stroke="#191919" stroke-width="1" fill="none" d="M.0,-6.0L.0,-82.5"/><path stroke-linecap="round" stroke="#191919" stroke-width="1" fill="#191919" d="M3.0,-6.0L.0,.0L-3.0,-6.0L3.0,-6.0"/></g><g transform="translate(97.876400,311.716200)" id="shape8"><path stroke-linecap="square" stroke="#686d75" stroke-width="1.3333300352096558" fill="none" d="M.0,29.3L51.8,29.3L51.8,.0L.0,.0L.0,29.3z"/><text xml:space="preserve" style="fill:#000000;font-family:Huawei Sans,PingFang SC,Mircrosoft YaHei,Arial;font-size:10.50pt"><tspan y="20.2" x="3.9">HCOM</tspan></text></g><g transform="translate(169.998400,311.716200)" id="shape9"><path stroke-linecap="square" stroke="#686d75" stroke-width="1.3333300352096558" fill="none" d="M.0,29.3L51.8,29.3L51.8,.0L.0,.0L.0,29.3z"/><text xml:space="preserve" style="fill:#000000;font-family:Huawei Sans,PingFang SC,Mircrosoft YaHei,Arial;font-size:10.50pt"><tspan y="20.2" x="9.4">UBSE</tspan></text></g><g transform="translate(242.120400,311.716200)" id="shape10"><path stroke-linecap="square" stroke="#686d75" stroke-width="1.3333300352096558" fill="none" d="M.0,29.3L51.8,29.3L51.8,.0L.0,.0L.0,29.3z"/><text xml:space="preserve" style="fill:#000000;font-family:Huawei Sans,PingFang SC,Mircrosoft YaHei,Arial;font-size:10.50pt"><tspan y="20.2" x="3.4">OBMM</tspan></text></g><g transform="translate(314.242400,311.716200)" id="shape11"><path stroke-linecap="square" stroke="#686d75" stroke-width="1.3333300352096558" fill="none" d="M.0,29.3L51.8,29.3L51.8,.0L.0,.0L.0,29.3z"/><text xml:space="preserve" style="fill:#000000;font-family:Huawei Sans,PingFang SC,Mircrosoft YaHei,Arial;font-size:10.50pt"><tspan y="20.2" x="6.9">DLock</tspan></text></g><g transform="translate(102.048000,202.761300)" id="shape12"><path stroke-linecap="square" stroke="#686d75" stroke-width="1.3333300352096558" fill="none" d="M.0,78.7L259.8,78.7L259.8,.0L.0,.0L.0,78.7z"/><text xml:space="preserve" style="fill:#202329;font-family:Huawei Sans,PingFang SC,Mircrosoft YaHei,Arial;font-size:10.50pt"><tspan y="19.0" x="70.4">UBSMEM-Daemon</tspan></text></g><g transform="translate(123.786000,311.716000)" id="shape13"><path stroke="#191919" stroke-width="1" fill="none" d="M.0,-6.0L.0,-29.5"/><path stroke-linecap="round" stroke="#191919" stroke-width="1" fill="#191919" d="M3.0,-6.0L.0,.0L-3.0,-6.0L3.0,-6.0"/></g><g transform="translate(195.908000,311.716000)" id="shape14"><path stroke="#191919" stroke-width="1" fill="none" d="M.0,-6.0L.0,-29.5"/><path stroke-linecap="round" stroke="#191919" stroke-width="1" fill="#191919" d="M3.0,-6.0L.0,.0L-3.0,-6.0L3.0,-6.0"/></g><g transform="translate(268.030000,311.716000)" id="shape15"><path stroke="#191919" stroke-width="1" fill="none" d="M.0,-6.0L.0,-29.5"/><path stroke-linecap="round" stroke="#191919" stroke-width="1" fill="#191919" d="M3.0,-6.0L.0,.0L-3.0,-6.0L3.0,-6.0"/></g><g transform="translate(340.152000,311.716000)" id="shape16"><path stroke="#191919" stroke-width="1" fill="none" d="M.0,-6.0L-0.0,-29.5"/><path stroke-linecap="round" stroke="#191919" stroke-width="1" fill="#191919" d="M3.0,-6.0L.0,.0L-3.0,-6.0L3.0,-6.0"/></g></g></svg>