<svg width="476.99999999999994" height="390" xmlns="http://www.w3.org/2000/svg">
 <g>
  <title>Layer 1</title>
  <g id="shape3">
   <path stroke-linecap="square" stroke="#686d75" stroke-width="1.33333" fill="none" d="m96.209,301.6853l283.5,0l0,-207.4l-283.5,0l0,207.4z" id="svg_8"/>
   <text xml:space="preserve" fill="#202329" font-family="Huawei Sans,PingFang SC,Mircrosoft YaHei,Arial" font-size="10.50pt" y="94.84085" x="96.209" id="svg_9">
    <tspan y="108.34085" x="201.909" id="svg_10">KSHMEM</tspan>
   </text>
  </g>
  <rect height="380" y="5.8937" fill="none" x="5.5" width="467" id="svg_1"/>
  <g id="shape1">
   <path stroke-linecap="square" stroke="#686d75" stroke-width="1.33333" fill="none" d="m107.548,195.8263l259.8,0l0,-70.1l-259.8,0l0,70.1z" id="svg_2"/>
   <text xml:space="preserve" fill="#202329" font-family="Huawei Sans,PingFang SC,Mircrosoft YaHei,Arial" font-size="10.50pt" y="125.7263" x="107.548" id="svg_3">
    <tspan y="139.2263" x="186.448" id="svg_4">UBSMEM-SDK</tspan>
   </text>
  </g>
  <g id="shape2">
   <path fill="#c2d5fe" d="m127.083,185.47439l219.6,0c1.6,0 3,-1.3 3,-3l0,-22.4c0,-1.7 -1.4,-3 -3,-3l-219.6,0c-1.7,0 -3,1.3 -3,3l0,22.4c0,1.7 1.3,3 3,3z" fill-rule="nonzero" id="svg_5"/>
   <text xml:space="preserve" fill="#202329" font-family="Huawei Sans,PingFang SC,Mircrosoft YaHei,Arial" font-size="10.50pt" y="162.07439" x="124.083" id="svg_6">
    <tspan y="176.27439" x="179.383" id="svg_7">ubsmem_sdk_lib</tspan>
   </text>
  </g>
  <g id="shape12">
   <path stroke-linecap="square" stroke="#686d75" stroke-width="1.33333" fill="none" d="m106.99245,287.35501l259.8,0l0,-78.7l-259.8,0l0,78.7z" id="svg_34"/>
   <text xml:space="preserve" fill="#202329" font-family="Huawei Sans,PingFang SC,Mircrosoft YaHei,Arial" font-size="10.50pt" y="210.32167" x="107.548" id="svg_35">
    <tspan y="223.82167" x="172.448" id="svg_36">UBSMEM-Daemon</tspan>
   </text>
  </g>
  <g id="shape6">
   <path stroke-linecap="square" stroke="#686d75" stroke-width="1.33333" fill="none" d="m96.209,74.548l283.5,0l0,-29.3l-283.5,0l0,29.3z" id="svg_17"/>
   <text xml:space="preserve" fill="#000000" font-family="Huawei Sans,PingFang SC,Mircrosoft YaHei,Arial" font-size="10.50pt" y="45.248" x="96.209" id="svg_18">
    <tspan y="59.948" x="219.909" id="svg_19">APP</tspan>
   </text>
  </g>
  <g id="shape7">
   <path stroke="#191919" fill="none" d="m161.12,151.0747l0,-76.5" id="svg_20"/>
   <path stroke-linecap="round" stroke="#191919" fill="#191919" d="m164.12,151.0747l-3,6l-3,-6l6,0" id="svg_21"/>
  </g>
  <g id="shape8">
   <path stroke-linecap="square" stroke="#686d75" stroke-width="1.33333" fill="none" d="m103.3764,346.90989l51.8,0l0,-29.3l-51.8,0l0,29.3z" id="svg_22"/>
   <text xml:space="preserve" fill="#000000" font-family="Huawei Sans,PingFang SC,Mircrosoft YaHei,Arial" font-size="10.50pt" y="322.05432" x="108.49451" id="svg_23">
    <tspan y="336.75432" x="106.89451" id="svg_24">HCOM</tspan>
   </text>
  </g>
  <g id="shape9">
   <path stroke-linecap="square" stroke="#686d75" stroke-width="1.33333" fill="none" d="m210.14407,346.90989l51.8,0l0,-29.3l-51.8,0l0,29.3z" id="svg_25"/>
   <text xml:space="preserve" fill="#000000" font-family="Huawei Sans,PingFang SC,Mircrosoft YaHei,Arial" font-size="10.50pt" y="322.60987" x="213.68738" id="svg_26">
    <tspan y="337.30987" x="217.58738" id="svg_27">UBSE</tspan>
   </text>
  </g>
  <g id="shape10">
   <path stroke-linecap="square" stroke="#686d75" stroke-width="1.33333" fill="none" d="m320.45505,346.90989l51.8,0l0,-29.3l-51.8,0l0,29.3z" id="svg_28"/>
   <text xml:space="preserve" fill="#000000" font-family="Huawei Sans,PingFang SC,Mircrosoft YaHei,Arial" font-size="10.50pt" y="322.60987" x="326.36057" id="svg_29">
    <tspan y="336.91617" x="323.86686" id="svg_30">OBMM</tspan>
   </text>
  </g>
  <g id="shape13">
   <path stroke="#191919" fill="none" d="m129.286,311.6097l0,-23.5" id="svg_37"/>
   <path stroke-linecap="round" stroke="#191919" fill="#191919" d="m132.286,311.6097l-3,6l-3,-6l6,0" id="svg_38"/>
  </g>
  <g id="shape14">
   <path stroke="#191919" fill="none" d="m236.84107,311.6097l0,-23.5" id="svg_39"/>
   <path stroke-linecap="round" stroke="#191919" fill="#191919" d="m239.84107,311.6097l-3,6l-3,-6l6,0" id="svg_40"/>
  </g>
  <g id="shape16">
   <path stroke="#191919" fill="none" d="m345.65201,311.6097l0,-23.5" id="svg_43"/>
   <path stroke-linecap="round" stroke="#191919" fill="#191919" d="m348.65201,311.6097l-3,6l-3,-6l6,0" id="svg_44"/>
  </g>
  <g id="shape5">
   <path fill="#c2d5fe" d="m248.2643,272.2554l98.4,0c1.7,0 3,-1.3 3,-3l0,-22.4c0,-1.7 -1.3,-3 -3,-3l-98.4,0c-1.7,0 -3,1.3 -3,3l0,22.4c0,1.7 1.3,3 3,3z" fill-rule="nonzero" id="svg_14"/>
   <text xml:space="preserve" fill="#202329" font-family="Huawei Sans,PingFang SC,Mircrosoft YaHei,Arial" font-size="10.50pt" y="248.29983" x="250.26428" id="svg_15">
    <tspan y="262.49983" x="275.46428" id="svg_16">ubsmd</tspan>
   </text>
  </g>
  <g id="shape4">
   <path fill="#c2d5fe" d="m127.0833,272.2554l98.4,0c1.7,0 3,-1.3 3,-3l0,-22.4c0,-1.7 -1.3,-3 -3,-3l-98.4,0c-1.7,0 -3,1.3 -3,3l0,22.4c0,1.7 1.3,3 3,3z" fill-rule="nonzero" id="svg_11"/>
   <text xml:space="preserve" fill="#202329" font-family="Huawei Sans,PingFang SC,Mircrosoft YaHei,Arial" font-size="10.50pt" y="248.29983" x="128.52773" id="svg_12">
    <tspan y="262.49983" x="142.72773" id="svg_13">ubsmd_lib</tspan>
   </text>
  </g>
 </g>

</svg>